<svg xmlns="http://www.w3.org/2000/svg" width="961" height="960" viewBox="0 0 961 960" version="1.1">
	<path d="M 429.323 197.888 L 141.146 201.500 138.323 203.605 C 136.770 204.762, 134.671 207.125, 133.658 208.855 C 131.892 211.870, 131.851 215.066, 132.658 285.750 L 133.501 359.500 135.791 363.183 C 139.841 369.698, 142.847 370.242, 172.620 369.845 L 198.456 369.500 198.705 378.585 L 198.954 387.669 214.001 426.535 L 229.047 465.401 190.890 559.450 C 161.651 631.518, 152.725 654.502, 152.700 657.788 C 152.662 662.717, 155.021 666.511, 159.900 669.368 C 162.993 671.180, 165.775 671.200, 251.295 670.019 C 307.149 669.248, 340.234 668.425, 341.500 667.776 C 347.324 664.789, 347.420 664.537, 378.581 570.296 C 395.366 519.533, 409.548 478, 410.096 478 C 410.645 478, 416.360 478.964, 422.797 480.142 C 434.503 482.284, 462.408 483.262, 475.810 482 L 481.120 481.500 484.496 491.874 C 493.358 519.101, 510.228 541.453, 528.238 549.830 L 533.979 552.500 533.978 562 C 533.974 581.125, 537.079 664.675, 538.009 670.500 C 538.536 673.800, 540.608 679.875, 542.613 684 C 546.090 691.151, 549.031 694.280, 605.880 751.294 C 638.671 784.181, 667.561 812.416, 670.081 814.040 C 684.843 823.551, 706.146 823.553, 720.919 814.043 C 723.439 812.421, 746.678 789.810, 772.562 763.797 C 818.129 718.002, 819.731 716.262, 823.022 709 C 829.398 694.932, 828.158 676.593, 819.947 663.500 C 818.162 660.654, 791.116 632.802, 757.156 598.839 C 702.034 543.712, 696.968 538.915, 690.500 535.720 C 686.650 533.819, 680.506 531.748, 676.846 531.119 C 672.337 530.344, 650.853 529.988, 610.181 530.016 C 543.968 530.060, 547.057 530.326, 535.594 523.608 C 525.602 517.752, 515.551 502.408, 509.378 483.587 C 506.419 474.563, 506.238 473.395, 507.669 472.500 C 508.549 471.950, 512.696 469.302, 516.884 466.616 C 543.460 449.572, 557 419.248, 557 376.776 L 557 365 559.750 364.952 C 561.263 364.926, 608.185 364.315, 664.022 363.596 C 751.760 362.465, 765.949 362.078, 768.524 360.746 C 772.427 358.728, 774.865 355.956, 775.894 352.369 C 776.353 350.770, 776.312 317.071, 775.804 277.481 C 774.778 197.625, 775.091 200.918, 768.102 196.263 C 763.876 193.448, 795.710 193.296, 429.323 197.888 M 420.500 225.556 C 277.500 227.362, 160.387 228.876, 160.250 228.920 C 159.813 229.060, 159.981 258.180, 160.666 300.889 L 161.330 342.279 189.415 341.642 C 204.862 341.292, 336.975 339.595, 483 337.871 C 629.025 336.148, 748.633 334.626, 748.796 334.490 C 748.958 334.353, 748.774 308.988, 748.386 278.121 L 747.681 222 714.090 222.136 C 695.616 222.211, 563.500 223.750, 420.500 225.556 M 471.279 365.749 L 446.058 366.034 432.529 407.356 C 425.088 430.083, 419 449.192, 419 449.820 C 419 451.121, 419.955 451.377, 432.920 453.545 C 449.859 456.378, 478.918 455.139, 484.473 451.347 C 485.557 450.606, 487.556 450, 488.914 450 C 492.506 450, 504.697 442.425, 510.546 436.560 C 518.982 428.101, 524.564 416.509, 527.547 401.257 C 529.328 392.149, 530.501 373.485, 529.595 368.657 L 528.909 365 512.705 365.232 C 503.792 365.360, 485.151 365.592, 471.279 365.749 M 317.708 367.558 C 268.873 368.251, 228.210 369.089, 227.346 369.421 C 226.070 369.910, 225.858 371.287, 226.213 376.762 C 226.585 382.489, 228.926 389.395, 241.825 422.813 C 251.574 448.070, 256.998 463.444, 256.995 465.813 C 256.992 468.198, 252.909 479.564, 245.432 498 C 226.434 544.846, 188.134 639.487, 187.380 641.452 C 186.703 643.217, 189.095 643.255, 256.089 642.553 C 294.265 642.154, 325.786 641.528, 326.137 641.163 C 326.758 640.515, 417 367.853, 417 366.622 C 417 366.280, 414.637 366.067, 411.750 366.149 C 408.863 366.231, 366.544 366.865, 317.708 367.558 M 560.308 558.639 C 559.962 559.541, 560.453 584.175, 561.400 613.381 C 562.910 659.999, 563.340 666.973, 564.922 670.492 C 566.167 673.263, 584.508 692.445, 624.332 732.626 C 687.007 795.863, 686.716 795.613, 696.465 794.784 C 699.234 794.549, 703.165 793.560, 705.200 792.588 C 710.295 790.153, 795.175 704.507, 798.150 698.799 C 801.047 693.241, 801.177 684.959, 798.447 679.869 C 795.383 674.156, 682.252 560.411, 677.782 558.549 C 674.574 557.212, 666.308 557, 617.501 557 C 566.006 557, 560.881 557.147, 560.308 558.639 M 614.300 583.804 C 595.600 590.474, 585.263 610.373, 590.425 629.764 C 595.338 648.220, 614.071 660.492, 632.211 657.138 C 640.523 655.602, 646.844 652.240, 653.087 646.037 C 660.692 638.481, 663.343 631.678, 663.427 619.500 C 663.483 611.454, 663.164 609.811, 660.413 603.997 C 656.622 595.985, 649.812 589.012, 642.238 585.388 C 634.605 581.736, 622.087 581.026, 614.300 583.804 M 621.270 609.483 C 611.956 613.531, 612.217 626.686, 621.689 630.644 C 624.681 631.893, 625.853 631.919, 629.332 630.810 C 639.497 627.569, 640.972 614.062, 631.643 609.635 C 627.492 607.665, 625.517 607.636, 621.270 609.483" stroke="none" fill="black" fill-rule="evenodd"/>
</svg>